<svg width="30" height="30" viewBox="0 0 60 60" fill="none" xmlns="http://www.w3.org/2000/svg">
<path d="M55.9503 44.9999C56.3687 44.2752 56.6286 43.4587 56.6286 42.7255V17.2743C56.6286 16.5411 56.369 15.7247 55.9505 15.0001L29.9697 30L55.9503 44.9999Z" fill="#00599C"/>
<path d="M32.2781 59.4499L54.3196 46.7244C54.9545 46.3578 55.5316 45.7248 55.95 44.9999L29.9694 30L3.98877 45.0001C4.40712 45.7248 4.98438 46.3579 5.61915 46.7244L27.6607 59.4499C28.9304 60.1831 31.0084 60.1831 32.2781 59.4499Z" fill="#004482"/>
<path d="M55.9502 14.9999C55.5317 14.2751 54.9545 13.6421 54.3197 13.2754L32.2782 0.549906C31.0085 -0.183302 28.9305 -0.183302 27.6608 0.549906L5.61924 13.2754C4.34937 14.0085 3.31055 15.808 3.31055 17.2743V42.7255C3.31055 43.4587 3.57034 44.2752 3.98887 44.9999L29.9695 30L55.9502 14.9999Z" fill="#659AD2"/>
<path d="M29.9694 47.7726C20.1695 47.7726 12.1968 39.7998 12.1968 30C12.1968 20.2001 20.1695 12.2274 29.9694 12.2274C36.293 12.2274 42.1905 15.6303 45.3603 21.1081L37.6688 25.5589C36.0823 22.817 33.1319 21.1137 29.9694 21.1137C25.0694 21.1137 21.0831 25.1 21.0831 30C21.0831 34.8998 25.0694 38.8863 29.9694 38.8863C33.1322 38.8863 36.0826 37.1829 37.6693 34.4405L45.3608 38.8912C42.191 44.3695 36.2933 47.7726 29.9694 47.7726Z" fill="white"/>
<path d="M47.7421 29.0126H45.7672V27.0379H43.7927V29.0126H41.8179V30.9873H43.7927V32.9621H45.7672V30.9873H47.7421V29.0126Z" fill="white"/>
<path d="M55.1473 29.0126H53.1725V27.0379H51.198V29.0126H49.2231V30.9873H51.198V32.9621H53.1725V30.9873H55.1473V29.0126Z" fill="white"/>
</svg>
