<svg width="30" height="30" viewBox="0 0 30 30" fill="none" xmlns="http://www.w3.org/2000/svg">
<path d="M14.9999 0C6.72926 0 0 6.72926 0 15.0001C0 23.2717 6.72926 30.0006 14.9999 30.0006C23.2707 30.0006 30 23.2717 30 15.0001C30 6.72926 23.2707 0 14.9999 0Z" fill="white"/>
<path d="M14.4515 15.2699C14.3167 15.5619 14.168 15.8901 14.014 16.2393C13.4697 17.4726 12.8669 18.9733 12.6467 19.9347C12.5676 20.2771 12.5186 20.7014 12.5195 21.1719C12.5195 21.358 12.5295 21.5536 12.5453 21.7528C13.3149 22.0356 14.1461 22.1911 15.0141 22.1926C15.8043 22.1911 16.5635 22.0606 17.274 21.8243C17.107 21.6716 16.9476 21.5088 16.8025 21.3254C15.8392 20.0971 15.3018 18.2969 14.4515 15.2699Z" fill="#91DC47"/>
<path d="M10.8948 9.16699C9.05512 10.4636 7.85125 12.602 7.84668 15.0254C7.85125 17.4127 9.01891 19.5234 10.8123 20.8254C11.2523 18.9929 12.355 17.315 14.0086 13.9518C13.9104 13.682 13.7985 13.3867 13.6732 13.0765C13.2152 11.9273 12.554 10.5928 11.9639 9.98848C11.6631 9.67277 11.2981 9.39996 10.8948 9.16699Z" fill="#91DC47"/>
<path d="M21.2571 23.2462C20.3079 23.1272 19.5245 22.9837 18.8392 22.7419C17.6865 23.3142 16.3885 23.6376 15.014 23.6376C10.258 23.6376 6.40267 19.7828 6.40209 15.0254C6.40209 12.4442 7.53927 10.1302 9.33833 8.55201C8.85716 8.43576 8.35537 8.36791 7.84279 8.36885C5.31599 8.39263 2.64869 9.79103 1.53822 13.5676C1.43439 14.1174 1.45912 14.533 1.45912 15.0257C1.45912 22.5122 7.52837 28.5815 15.0143 28.5815C19.5989 28.5815 23.6489 26.3035 26.1015 22.8195C24.775 23.1501 23.4993 23.3081 22.4069 23.3115C21.9974 23.3115 21.613 23.2896 21.2571 23.2462Z" fill="#63B132"/>
<path d="M18.71 20.6195C18.7937 20.661 18.9834 20.7287 19.2474 20.8036C21.0236 19.4997 22.1779 17.3993 22.1825 15.0254H22.1818C22.1751 11.0679 18.9725 7.86576 15.014 7.85791C14.2272 7.85943 13.4714 7.98928 12.7637 8.22377C14.219 9.88268 14.9189 12.2534 15.5959 14.8466C15.5962 14.8478 15.5968 14.8487 15.597 14.8497C15.5983 14.8518 15.8136 15.5698 16.1832 16.5224C16.5502 17.4737 17.0731 18.6515 17.6434 19.5097C18.0178 20.0849 18.4296 20.4982 18.71 20.6195Z" fill="#90B4FE"/>
<path d="M15.0141 1.46967C10.4738 1.46967 6.45756 3.70478 3.99756 7.13193C5.27783 6.33013 6.58506 6.04092 7.72588 6.05123C9.30158 6.0558 10.5404 6.54435 11.1347 6.87857C11.2783 6.96131 11.4146 7.05037 11.5481 7.14189C12.6086 6.67478 13.7805 6.41357 15.0138 6.41357C19.7703 6.41416 23.6262 10.2689 23.6269 15.0254H23.6262C23.6262 17.4236 22.6454 19.5919 21.0642 21.1533C21.4523 21.1968 21.8662 21.2238 22.2889 21.2217C23.7902 21.2224 25.4129 20.8911 26.6294 19.868C27.4226 19.1998 28.0872 18.2214 28.4558 16.7544C28.5278 16.1878 28.5693 15.6119 28.5693 15.0257C28.5693 7.53951 22.5006 1.46967 15.0141 1.46967Z" fill="#5881D8"/>
</svg>
