<svg width="30" height="30" viewBox="0 0 30 30" fill="none" xmlns="http://www.w3.org/2000/svg">
<g clip-path="url(#clip0_749_10145)">
<path fill-rule="evenodd" clip-rule="evenodd" d="M15.9533 0.0754395C13.7737 0.848003 11.6698 3.10291 9.64133 6.84016C6.59869 12.446 2.66897 20.4121 8.08023 26.7193C10.5836 29.6371 14.7171 31.3593 20.1416 28.6318C24.4993 26.4407 25.7113 20.1528 24.1468 17.198C20.9195 11.1029 17.6454 9.59955 16.7686 5.81961C16.1841 3.29965 15.9123 1.38493 15.9533 0.0754395Z" fill="url(#paint0_linear_749_10145)"/>
<path fill-rule="evenodd" clip-rule="evenodd" d="M15.9531 0C13.7625 0.780528 11.6585 3.03543 9.6411 6.76472C6.61504 12.3586 2.66874 20.3366 8.07999 26.6438C10.5834 29.5617 14.6636 30.5046 16.9277 28.774C18.4036 27.6459 19.4075 26.5705 19.9858 24.3047C20.6298 21.7817 20.1357 18.385 19.7972 16.8246C19.3687 14.8502 19.2285 12.683 19.3765 10.3232C19.3243 10.2597 19.2854 10.2121 19.2596 10.1806C18.0809 8.7381 17.1714 7.48164 16.7684 5.74417C16.1839 3.22421 15.9121 1.30949 15.9531 0Z" fill="url(#paint1_linear_749_10145)"/>
<path fill-rule="evenodd" clip-rule="evenodd" d="M14.1395 0.981445C12.0991 2.59402 10.582 5.29886 9.58829 9.09598C8.09765 14.7916 7.93612 20.044 8.46184 23.099C9.48099 29.0213 14.7646 31.2693 20.1841 28.5127C23.5193 26.8163 24.9084 23.1748 24.8348 19.2222C24.7586 15.1295 16.8499 10.4912 15.4492 7.07561C14.5155 4.79855 14.0789 2.76716 14.1395 0.981445Z" fill="url(#paint2_linear_749_10145)"/>
<path fill-rule="evenodd" clip-rule="evenodd" d="M19.3122 11.6597C21.7592 14.798 22.2926 16.9826 20.9124 18.2135C18.842 20.06 13.7792 21.2647 10.6296 19.0311C8.52985 17.5421 7.73538 14.3477 8.24619 9.44812C7.37942 11.2583 6.64655 13.092 6.04759 14.9493C5.44863 16.8066 5.27373 18.7502 5.52287 20.7801C6.27351 22.2987 8.09857 23.3129 10.9981 23.8228C15.3473 24.5876 19.4637 24.2097 22.2259 22.8173C24.0673 21.8891 24.9383 20.965 24.8389 20.0451C24.9053 18.6868 24.4864 17.3937 23.5822 16.1659C22.678 14.9381 21.2546 13.436 19.3122 11.6597Z" fill="url(#paint3_linear_749_10145)"/>
<path fill-rule="evenodd" clip-rule="evenodd" d="M9.74947 8.52612C9.72902 10.7926 10.3118 12.9471 11.4978 14.9898C13.2768 18.0537 15.3533 21.0813 18.4608 23.5908C20.5324 25.2639 22.1877 25.8044 23.4267 25.2124C22.409 27.0337 21.3269 27.9261 20.1805 27.8897C18.4608 27.8351 16.3639 27.0836 13.0041 23.0461C10.7642 20.3545 9.23195 17.8084 8.40723 15.4078C8.53801 14.4554 8.67669 13.5069 8.82327 12.5621C8.96985 11.6173 9.27858 10.272 9.74947 8.52612Z" fill="url(#paint4_linear_749_10145)"/>
<path fill-rule="evenodd" clip-rule="evenodd" d="M15.0052 11.6364C15.1952 13.4827 15.9137 16.4362 15.0052 18.4026C14.0966 20.369 9.90015 23.9214 11.0585 27.0508C12.2169 30.1801 15.0399 29.4776 16.8107 28.0354C18.5815 26.5932 19.5294 24.2482 19.7395 22.5991C19.9496 20.9499 19.2368 17.7767 19.005 15.0166C18.8505 13.1765 18.9553 11.5989 19.3196 10.2836L18.777 9.60079L15.5832 8.65515C15.0711 9.41177 14.8784 10.4055 15.0052 11.6364Z" fill="url(#paint5_linear_749_10145)"/>
<path fill-rule="evenodd" clip-rule="evenodd" d="M16.1453 2.49133C15.1116 2.92812 14.1322 3.79361 13.2072 5.0878C11.8196 7.02908 11.1128 8.19276 11.636 12.0409C11.9847 14.6063 12.2343 16.9664 12.3848 19.1212L16.8581 6.1242C16.6937 5.46194 16.5569 4.86384 16.4478 4.32989C16.3387 3.79594 16.2379 3.18309 16.1453 2.49133Z" fill="url(#paint6_linear_749_10145)"/>
<path fill-rule="evenodd" clip-rule="evenodd" d="M16.8497 6.09839C15.7141 6.7612 14.8342 8.11913 14.2099 10.1722C13.5857 12.2252 13.0146 15.0954 12.4966 18.7825C13.1874 16.4374 13.6457 14.7387 13.8714 13.6867C14.2099 12.1087 14.3256 9.87712 15.2245 8.3621C15.8237 7.3521 16.3655 6.59752 16.8497 6.09839Z" fill="#330A4C" fill-opacity="0.316321"/>
<path fill-rule="evenodd" clip-rule="evenodd" d="M11.5918 28.0959C13.4605 28.3629 14.4377 28.6003 14.5233 28.808C14.6517 29.1196 14.2868 29.4046 13.2494 29.2131C12.5579 29.0854 12.0053 28.713 11.5918 28.0959Z" fill="white"/>
<path fill-rule="evenodd" clip-rule="evenodd" d="M12.5306 2.49133C11.5027 3.71926 10.612 5.02106 9.85858 6.39673C9.10513 7.7724 8.56676 8.7987 8.24348 9.47563C8.14328 9.98052 8.09438 10.7255 8.09676 11.7105C8.09915 12.6956 8.18435 13.7909 8.35237 14.9964C8.49947 12.6358 8.9498 10.3444 9.70334 8.1223C10.4569 5.90019 11.3993 4.0232 12.5306 2.49133Z" fill="#EDEDED" fill-opacity="0.603261"/>
</g>
<defs>
<linearGradient id="paint0_linear_749_10145" x1="15.5335" y1="2.28656" x2="14.4927" y2="29.9773" gradientUnits="userSpaceOnUse">
<stop stop-color="#D9D8DC"/>
<stop offset="1" stop-color="white" stop-opacity="0.385275"/>
</linearGradient>
<linearGradient id="paint1_linear_749_10145" x1="16.0036" y1="2.27964" x2="5.12734" y2="26.1174" gradientUnits="userSpaceOnUse">
<stop stop-color="#8D67AF" stop-opacity="0.671932"/>
<stop offset="1" stop-color="#9F8DAF"/>
</linearGradient>
<linearGradient id="paint2_linear_749_10145" x1="17.218" y1="10.003" x2="17.218" y2="29.1724" gradientUnits="userSpaceOnUse">
<stop stop-color="#26053D" stop-opacity="0.761634"/>
<stop offset="1" stop-color="#B7B4B4" stop-opacity="0.277683"/>
</linearGradient>
<linearGradient id="paint3_linear_749_10145" x1="7.38225" y1="11.2993" x2="12.2623" y2="24.2264" gradientUnits="userSpaceOnUse">
<stop stop-color="#91739F" stop-opacity="0.45955"/>
<stop offset="1" stop-color="#32054F" stop-opacity="0.539912"/>
</linearGradient>
<linearGradient id="paint4_linear_749_10145" x1="20.4262" y1="27.1957" x2="7.00638" y2="16.076" gradientUnits="userSpaceOnUse">
<stop stop-color="#463D49" stop-opacity="0.331182"/>
<stop offset="1" stop-color="#340A50" stop-opacity="0.821388"/>
</linearGradient>
<linearGradient id="paint5_linear_749_10145" x1="17.6679" y1="10.1837" x2="8.2031" y2="24.5822" gradientUnits="userSpaceOnUse">
<stop stop-color="#715383" stop-opacity="0.145239"/>
<stop offset="1" stop-color="#F4F4F4" stop-opacity="0.233639"/>
</linearGradient>
<linearGradient id="paint6_linear_749_10145" x1="18.5732" y1="14.5755" x2="11.8704" y2="14.1663" gradientUnits="userSpaceOnUse">
<stop stop-color="#A5A1A8" stop-opacity="0.356091"/>
<stop offset="1" stop-color="#370C50" stop-opacity="0.581975"/>
</linearGradient>
<clipPath id="clip0_749_10145">
<rect width="30" height="30" fill="white"/>
</clipPath>
</defs>
</svg>
