<svg xmlns="http://www.w3.org/2000/svg" viewBox="2 2 30 30" width="30" height="30">
    <g fill="#00ACD7" fill-rule="evenodd">
        <path
            d="M3.35 13.5c-.06 0-.07-.04-.05-.08l.3-.4c.04-.03.11-.06.17-.06h5.17c.06 0 .07.04.05.08l-.25.38c-.03.04-.1.09-.15.09l-5.24-.02zm-2.19 1.33c-.06 0-.07-.03-.04-.08l.3-.39c.03-.04.1-.07.16-.07h6.6c.07 0 .1.04.08.09l-.12.34c-.01.06-.07.1-.13.1H1.16zm3.51 1.33c-.06 0-.08-.04-.05-.09l.2-.36c.04-.04.1-.09.15-.09h2.9c.06 0 .09.05.09.1l-.03.35c0 .06-.06.1-.1.1l-3.16-.01zm15.04-2.93l-2.43.64c-.22.06-.24.07-.42-.15-.22-.24-.38-.4-.69-.55a2.52 2.52 0 00-2.62.22 3.08 3.08 0 00-1.48 2.75 2.27 2.27 0 001.96 2.28c.98.13 1.81-.22 2.46-.96l.4-.53h-2.8c-.3 0-.38-.2-.28-.44.19-.45.54-1.2.74-1.58a.4.4 0 01.36-.23h5.28c-.03.4-.03.78-.09 1.18-.16 1.04-.55 2-1.19 2.84a6.04 6.04 0 01-4.13 2.46 5.13 5.13 0 01-3.9-.96A4.55 4.55 0 019.04 17c-.18-1.58.28-3 1.24-4.25a6.43 6.43 0 014.05-2.5 5 5 0 013.84.7c.77.5 1.32 1.2 1.69 2.05.08.13.02.2-.15.24z">
        </path>
        <path
            d="M24.5 21.25a5.44 5.44 0 01-3.53-1.28 4.55 4.55 0 01-1.56-2.8 5.53 5.53 0 011.17-4.37 6.08 6.08 0 014.06-2.42 5.38 5.38 0 014.13.74 4.51 4.51 0 012.04 3.23 5.6 5.6 0 01-1.67 4.91 6.64 6.64 0 01-3.47 1.86c-.4.07-.79.08-1.16.13zm3.46-5.86c-.02-.19-.02-.33-.05-.48A2.39 2.39 0 0024.96 13a3.17 3.17 0 00-2.54 2.52 2.39 2.39 0 001.33 2.74c.8.34 1.6.3 2.37-.1a3.17 3.17 0 001.84-2.76z"
            fill-rule="nonzero"></path>
    </g>
</svg>