<svg xmlns="http://www.w3.org/2000/svg" viewBox="0 0 30 30" width="30" height="30">
  <defs>
    <style>
      .cls-1 {
        fill: #fff;
      }

      .cls-2 {
        fill: #ba001f;
      }
    </style>
  </defs>
  <path d="M27.12,24.71c-.23-.15-.82-.21-.82-.21,0,0,0-.44-.1-.85-.1-.41-.49-.69-.49-.69,0,0,.13-.28,.21-.67,.08-.39-.03-.8-.03-.8,0,0,.46-.51,.69-.77,.23-.26,.59-.64,.72-.93,.13-.28-.08-.49-.39-.87-.31-.39-.93-.9-1.36-1.29-.44-.39-1.96-1.54-1.96-1.54,0,0-.08-.1-.31-.46-.23-.36-.31-.26-.75-.62-.16-.14-.35-.24-.51-.31-.38-1.15-.86-2.44-1.46-3.86-1.32-3.1-1.69-3.89-2.73-5.99-1.04-2.11-2.13-3.82-2.41-4.28-.28-.46-.5-.9-.84-.18,0,0-3,5.7-4.48,9.32-.79,1.93-1.61,3.99-2.29,5.84-.12,.09-.27,.2-.41,.32-.46,.39-.51,.54-1.21,.93-.69,.39-1.52,.8-2.19,1.29-.67,.49-1.16,.85-1.26,.98-.1,.13-.21,.23-.05,.64,.15,.41,.1,.33,.39,.85,.28,.51,.87,1.31,.87,1.31,0,0-.1,.05-.08,.44,.03,.39,.13,.57,.31,.64,.18,.08,.03,.28-.05,.69-.08,.41-.03,.72-.03,.72,0,0-.51,0-.85,.1-.33,.1-.59,.1-.57,.44,.03,.33,.03,.46,.49,.75,.46,.28,.33,.31,.8,.39,.46,.08,.93,.28,1.26-.03,0,0,0,0,.01-.01-.05,.44-.07,.81-.06,1.07,.07,1.07,.07,1.25,.56,1.99,.29,.44,.74,.68,1.4,.71,.8,.04,2-.66,2.82-1.1,.87-.47,1.83-1.26,3.19-1.41,1.46-.16,2.21-.25,3.43,.12s1.88,.6,2.51,1.04c.71,.5,.74,.66,1.24,1.04,.59,.46,.93,.53,1.55,.56,.62,.02,1.11-.14,1.5-.76,.39-.62,.67-1.61,.78-2.46,.01-.1,.02-.23,.03-.38,.12,.07,.29,.16,.48,.24,.36,.15,.46,.21,.8,.05,.33-.15,.39-.31,.77-.59,.39-.28,.8-.64,1-.87,.21-.23,.08-.36-.15-.51Zm-21.12-2.83c-.11-.15-.28-.36-.39-.44-.18-.13-.51-.31-.62-.23-.1,.08-.33,.18-.33,.18,0,0-.87-1.36-1.03-1.65-.15-.28-.31-.26-.1-.44,.21-.18,.46-.49,.93-.82,.46-.33,1.03-.69,1.36-.9,.32-.2,.69-.4,.72-.41,.02,.04,.05,.12,.13,.28,.1,.22,.2,.45,.28,.63-.19,.6-.34,1.14-.46,1.62-.15,.64-.33,1.4-.49,2.19Zm19.22-.8c-.13,.03-.51,0-.8,.21-.28,.21-.21,.46-.21,.46h-.36c-.02-.1-.04-.21-.07-.31-.42-1.9-.35-1.55-.76-3.29,0,0,0,0,0-.01,.13-.22,.27-.52,.4-.86,.19-.53,.18-.56,.18-.57,0,0,.8,.52,1,.72,.21,.21,1.16,1.18,1.29,1.36,.13,.18,.44,.69,.44,.87s-.28,.33-.57,.67c-.28,.33-.41,.72-.54,.75Z"/>
  <path class="cls-1" d="M22.92,21.62c-.31-1.41-.35-1.56-.52-2.29l-.24-.98c-.39-1.61-.85-3.15-1.48-4.84-.14-.01-.26-.02-.38-.03,0,.06,0,.12,0,.19,0,2.48-2.27,4.49-5.05,4.49s-4.94-1.92-5.05-4.31c-.53,.07-.84,.12-.84,.12-.91,2.34-1.66,4.46-2.01,5.92-.78,3.3-1.27,5.98-1.27,6.96,0,.05,0,.1,0,.14v.06q.07,.97,.42,1.5c.09,.14,.24,.3,.7,.32,.48,.02,1.56-.56,2.14-.88l.22-.12c.18-.1,.38-.22,.59-.34,.75-.46,1.68-1.03,2.92-1.17,1.49-.17,2.39-.26,3.78,.15,1.16,.35,1.98,.62,2.76,1.16,.48,.33,.7,.54,.89,.73,.12,.11,.22,.21,.38,.34,.43,.33,.58,.35,1.04,.37,.39,.01,.54-.06,.72-.35,.29-.46,.55-1.3,.66-2.1,.02-.14,.03-.37,.03-.68,0-1.05-.11-2.93-.43-4.36Z"/>
  <path class="cls-2" d="M15.25,10.16c-2.25,0-4.07,1.58-4.07,3.51s1.83,3.51,4.07,3.51,4.07-1.58,4.07-3.51-1.83-3.51-4.07-3.51Z"/>
  <path class="cls-1" d="M14.48,11.55c.18,.43-.18,.99-.8,1.25-.62,.26-1.27,.12-1.45-.31-.18-.43,.18-.99,.8-1.25,.62-.26,1.27-.12,1.45,.31Z"/>
</svg>