<svg viewBox="0 0 256 346" xmlns="http://www.w3.org/2000/svg" width="30" height="30">
    <path
        d="M82.55 267.47s-13.2 7.68 9.4 10.28c27.37 3.12 41.35 2.67 71.51-3.04 0 0 7.93 4.97 19 9.28-67.6 28.98-153.01-1.68-99.9-16.52m-8.26-37.81s-14.81 10.96 7.8 13.3c29.23 3.01 52.32 3.26 92.27-4.44 0 0 5.53 5.6 14.22 8.67-81.75 23.9-172.8 1.89-114.3-17.53"
        fill="#5382A1"></path>
    <path
        d="M143.94 165.51c16.66 19.19-4.38 36.45-4.38 36.45s42.3-21.84 22.88-49.19c-18.15-25.5-32.06-38.17 43.27-81.86 0 0-118.24 29.53-61.77 94.6"
        fill="#E76F00"></path>
    <path
        d="M233.36 295.44s9.77 8.05-10.75 14.28c-39.03 11.82-162.44 15.39-196.72.47-12.32-5.36 10.79-12.8 18.06-14.37 7.58-1.64 11.91-1.33 11.91-1.33-13.7-9.66-88.58 18.95-38.03 27.15 137.85 22.35 251.3-10.07 215.53-26.2M88.9 190.48s-62.77 14.9-22.23 20.32c17.12 2.3 51.25 1.78 83.03-.89 25.98-2.19 52.07-6.85 52.07-6.85s-9.16 3.93-15.8 8.45c-63.74 16.77-186.88 8.97-151.43-8.18 29.98-14.5 54.36-12.85 54.36-12.85m112.6 62.94c64.8-33.67 34.84-66.03 13.93-61.67-5.12 1.07-7.4 2-7.4 2s1.9-2.99 5.53-4.28c41.37-14.54 73.19 42.9-13.36 65.65 0 0 1-.9 1.3-1.7"
        fill="#5382A1"></path>
    <path
        d="M162.44.37s35.89 35.9-34.04 91.1c-56.07 44.28-12.78 69.53-.02 98.38-32.73-29.53-56.75-55.53-40.64-79.72C111.4 74.6 176.92 57.39 162.44.37"
        fill="#E76F00"></path>
    <path
        d="M95.27 344.67c62.2 3.98 157.71-2.21 159.97-31.64 0 0-4.35 11.15-51.4 20.01-53.09 10-118.57 8.83-157.4 2.42 0 0 7.95 6.58 48.83 9.2"
        fill="#5382A1"></path>
</svg>