<svg xmlns="http://www.w3.org/2000/svg" viewBox="0 0 32 32" width="30" height="30">
    <path
        d="M15.516 28.952a2.09 2.09 0 01-1.002-.263l-3.17-1.883c-.478-.262-.24-.358-.096-.405.644-.215.763-.263 1.43-.644.072-.048.167-.024.239.024l2.432 1.454c.095.048.214.048.286 0l9.513-5.507c.095-.048.143-.143.143-.263v-10.99c0-.12-.048-.215-.143-.263L15.635 4.73c-.096-.048-.215-.048-.286 0l-9.513 5.483c-.096.048-.143.167-.143.262v10.991c0 .096.047.215.143.263l2.599 1.502c1.406.715 2.288-.12 2.288-.954V11.428a.29.29 0 01.286-.286h1.216a.29.29 0 01.287.286v10.848c0 1.884-1.026 2.98-2.814 2.98-.548 0-.977 0-2.193-.596L5 23.23A2.012 2.012 0 014 21.49V10.497c0-.715.381-1.383 1.001-1.74l9.513-5.508a2.128 2.128 0 012.003 0l9.513 5.508a2.012 2.012 0 011.001 1.74V21.49c0 .716-.381 1.383-1.001 1.74l-9.513 5.508a2.44 2.44 0 01-1.001.215zm2.932-7.558c-4.172 0-5.03-1.907-5.03-3.529a.29.29 0 01.286-.286h1.24c.142 0 .262.096.262.239.19 1.263.739 1.883 3.266 1.883 2.003 0 2.861-.453 2.861-1.526 0-.62-.238-1.073-3.362-1.383-2.598-.262-4.22-.834-4.22-2.908 0-1.931 1.622-3.076 4.34-3.076 3.051 0 4.553 1.05 4.744 3.338a.385.385 0 01-.072.215c-.047.047-.119.095-.19.095h-1.24a.28.28 0 01-.262-.215c-.286-1.31-1.025-1.74-2.98-1.74-2.194 0-2.456.763-2.456 1.335 0 .691.31.906 3.266 1.288 2.933.381 4.315.93 4.315 2.98-.023 2.098-1.74 3.29-4.768 3.29z"
        fill="#89D42C"></path>
</svg>