<svg width="30" height="30" viewBox="0 0 60 60" fill="none" xmlns="http://www.w3.org/2000/svg">
<path d="M4.5474 21.6738H13.0698C15.5712 21.6948 17.3838 22.416 18.5076 23.8362C19.6314 25.2564 20.0022 27.1962 19.6206 29.6556C19.4724 30.7794 19.1436 31.8816 18.6348 32.9628C18.147 34.044 17.469 35.019 16.5996 35.8884C15.5394 36.9906 14.4054 37.6902 13.197 37.9872C11.9886 38.2842 10.7376 38.4324 9.4446 38.4324H5.6286L4.4202 44.4744H0L4.5474 21.6738ZM8.268 25.299L6.36 34.839C6.4872 34.86 6.6144 34.8708 6.7416 34.8708C6.8898 34.8708 7.0386 34.8708 7.1868 34.8708C9.222 34.8918 10.9182 34.6908 12.2748 34.2666C13.6314 33.8214 14.5434 32.274 15.0096 29.6238C15.3912 27.3978 15.0096 26.115 13.8648 25.776C12.741 25.437 11.3316 25.278 9.6354 25.299C9.381 25.32 9.1374 25.3308 8.904 25.3308C8.6922 25.3308 8.4696 25.3308 8.2362 25.3308L8.268 25.299Z" fill="black"/>
<path d="M24.6559 15.6H29.0443L27.8041 21.6738H31.7473C33.9097 21.7164 35.5207 22.1616 36.5809 23.0094C37.6621 23.8572 37.9801 25.4688 37.5349 27.843L35.4043 38.4324H30.9523L32.9875 28.32C33.1993 27.2598 33.1357 26.5074 32.7967 26.0622C32.4577 25.617 31.7263 25.3944 30.6025 25.3944L27.0727 25.3626L24.4651 38.4324H20.0767L24.6559 15.6Z" fill="black"/>
<path d="M42.2471 21.6738H50.7695C53.2709 21.6948 55.0835 22.416 56.2073 23.8362C57.3311 25.2564 57.7019 27.1962 57.3203 29.6556C57.1721 30.7794 56.8433 31.8816 56.3345 32.9628C55.8467 34.044 55.1687 35.019 54.2993 35.8884C53.2391 36.9906 52.1051 37.6902 50.8967 37.9872C49.6883 38.2842 48.4373 38.4324 47.1443 38.4324H43.3283L42.1199 44.4744H37.6997L42.2471 21.6738ZM45.9677 25.299L44.0597 34.839C44.1869 34.86 44.3141 34.8708 44.4413 34.8708C44.5895 34.8708 44.7383 34.8708 44.8865 34.8708C46.9217 34.8918 48.6179 34.6908 49.9745 34.2666C51.3311 33.8214 52.2431 32.274 52.7093 29.6238C53.0909 27.3978 52.7093 26.115 51.5645 25.776C50.4407 25.437 49.0313 25.278 47.3351 25.299C47.0807 25.32 46.8371 25.3308 46.6037 25.3308C46.3919 25.3308 46.1693 25.3308 45.9359 25.3308L45.9677 25.299Z" fill="black"/>
</svg>
