<svg width="30" height="30" viewBox="0 0 30 30" fill="none" xmlns="http://www.w3.org/2000/svg">
<g clip-path="url(#clip0_1089_68506)">
<path fill-rule="evenodd" clip-rule="evenodd" d="M23.2423 19.7459L6.1142 29.9165L28.2919 28.4116L30 6.04883L23.2423 19.7459Z" fill="url(#paint0_linear_1089_68506)"/>
<path fill-rule="evenodd" clip-rule="evenodd" d="M28.3282 28.3967L26.4221 15.2402L21.2299 22.0963L28.3282 28.3967Z" fill="url(#paint1_linear_1089_68506)"/>
<path fill-rule="evenodd" clip-rule="evenodd" d="M28.354 28.3965L14.389 27.3003L6.18835 29.8881L28.354 28.3965Z" fill="url(#paint2_linear_1089_68506)"/>
<path fill-rule="evenodd" clip-rule="evenodd" d="M6.20806 29.8908L9.69668 18.4619L2.0199 20.1034L6.20806 29.8908Z" fill="url(#paint3_linear_1089_68506)"/>
<path fill-rule="evenodd" clip-rule="evenodd" d="M21.2285 22.1341L18.0185 9.56055L8.83209 18.1716L21.2285 22.1341Z" fill="url(#paint4_linear_1089_68506)"/>
<path fill-rule="evenodd" clip-rule="evenodd" d="M29.2717 9.73733L20.588 2.64502L18.1699 10.4626L29.2717 9.73733Z" fill="url(#paint5_linear_1089_68506)"/>
<path fill-rule="evenodd" clip-rule="evenodd" d="M25.2107 0.116467L20.1035 2.93886L16.8813 0.0786133L25.2107 0.116467Z" fill="url(#paint6_linear_1089_68506)"/>
<path fill-rule="evenodd" clip-rule="evenodd" d="M0 23.9372L2.1395 20.0352L0.408822 15.3867L0 23.9372Z" fill="url(#paint7_linear_1089_68506)"/>
<path fill-rule="evenodd" clip-rule="evenodd" d="M0.293762 15.24L2.03504 20.1792L9.60129 18.4817L18.2396 10.4536L20.6773 2.71034L16.8388 0L10.3128 2.44234C8.25672 4.35472 4.26691 8.1386 4.12307 8.20976C3.98074 8.28244 1.48843 12.993 0.293762 15.24Z" fill="white"/>
<path fill-rule="evenodd" clip-rule="evenodd" d="M6.40792 6.36685C10.8641 1.94854 16.6088 -0.661867 18.8134 1.56243C21.0167 3.78673 18.6802 9.19227 14.224 13.6091C9.76783 18.0259 4.09429 20.7801 1.89119 18.5558C-0.313427 16.333 1.95175 10.7836 6.40792 6.36685Z" fill="url(#paint8_linear_1089_68506)"/>
<path fill-rule="evenodd" clip-rule="evenodd" d="M6.20804 29.9698L9.6694 18.4727L21.1649 22.176C17.0085 26.0843 12.3858 29.3882 6.20804 29.9698Z" fill="url(#paint9_linear_1089_68506)"/>
<path fill-rule="evenodd" clip-rule="evenodd" d="M18.2547 10.4603L21.2058 22.1821C24.6777 18.5213 27.7939 14.5857 29.32 9.71777L18.2547 10.4603Z" fill="url(#paint10_linear_1089_68506)"/>
<path fill-rule="evenodd" clip-rule="evenodd" d="M29.2899 9.77686C30.4709 6.20261 30.7435 1.07507 25.1742 0.123047L20.6045 2.65417L29.2899 9.77686Z" fill="url(#paint11_linear_1089_68506)"/>
<path fill-rule="evenodd" clip-rule="evenodd" d="M0 23.9522C0.163529 29.8512 4.40771 29.9391 6.21562 29.9909L2.03957 20.2109L0 23.9522Z" fill="#9E1209"/>
<path fill-rule="evenodd" clip-rule="evenodd" d="M18.2712 10.4785C20.9391 12.1229 26.316 15.4253 26.4251 15.4861C26.5945 15.5817 28.7432 11.8526 29.2308 9.74512L18.2712 10.4785Z" fill="url(#paint12_radial_1089_68506)"/>
<path fill-rule="evenodd" clip-rule="evenodd" d="M9.66487 18.4727L14.2921 27.425C17.0282 25.937 19.1708 24.124 21.1331 22.182L9.66487 18.4727Z" fill="url(#paint13_radial_1089_68506)"/>
<path fill-rule="evenodd" clip-rule="evenodd" d="M2.02141 20.2231L1.36578 28.0519C2.60285 29.7464 4.30476 29.8937 6.08995 29.7616C4.79838 26.5381 2.21825 20.0926 2.02141 20.2231Z" fill="url(#paint14_linear_1089_68506)"/>
<path fill-rule="evenodd" clip-rule="evenodd" d="M20.5774 2.67364L29.7698 3.96729C29.2793 1.88257 27.7727 0.537288 25.2047 0.116699L20.5774 2.67364Z" fill="url(#paint15_linear_1089_68506)"/>
</g>
<defs>
<linearGradient id="paint0_linear_1089_68506" x1="26.3575" y1="32.6373" x2="20.0287" y2="21.4635" gradientUnits="userSpaceOnUse">
<stop stop-color="#FB7655"/>
<stop offset="0.41" stop-color="#E42B1E"/>
<stop offset="0.99" stop-color="#990000"/>
<stop offset="1" stop-color="#990000"/>
</linearGradient>
<linearGradient id="paint1_linear_1089_68506" x1="29.5102" y1="23.2513" x2="21.3538" y2="17.7779" gradientUnits="userSpaceOnUse">
<stop stop-color="#871101"/>
<stop offset="0.99" stop-color="#911209"/>
<stop offset="1" stop-color="#911209"/>
</linearGradient>
<linearGradient id="paint2_linear_1089_68506" x1="22.9842" y1="32.9761" x2="14.8281" y2="27.5029" gradientUnits="userSpaceOnUse">
<stop stop-color="#871101"/>
<stop offset="0.99" stop-color="#911209"/>
<stop offset="1" stop-color="#911209"/>
</linearGradient>
<linearGradient id="paint3_linear_1089_68506" x1="5.85924" y1="19.2887" x2="7.12365" y2="27.5062" gradientUnits="userSpaceOnUse">
<stop stop-color="white"/>
<stop offset="0.23" stop-color="#E57252"/>
<stop offset="0.46" stop-color="#DE3B20"/>
<stop offset="0.99" stop-color="#A60003"/>
<stop offset="1" stop-color="#A60003"/>
</linearGradient>
<linearGradient id="paint4_linear_1089_68506" x1="14.556" y1="11.6161" x2="15.0219" y2="20.0025" gradientUnits="userSpaceOnUse">
<stop stop-color="white"/>
<stop offset="0.23" stop-color="#E4714E"/>
<stop offset="0.56" stop-color="#BE1A0D"/>
<stop offset="0.99" stop-color="#A80D00"/>
<stop offset="1" stop-color="#A80D00"/>
</linearGradient>
<linearGradient id="paint5_linear_1089_68506" x1="22.2737" y1="3.86407" x2="23.6684" y2="9.87455" gradientUnits="userSpaceOnUse">
<stop stop-color="white"/>
<stop offset="0.18" stop-color="#E46342"/>
<stop offset="0.4" stop-color="#C82410"/>
<stop offset="0.99" stop-color="#A80D00"/>
<stop offset="1" stop-color="#A80D00"/>
</linearGradient>
<linearGradient id="paint6_linear_1089_68506" x1="18.0149" y1="1.74744" x2="24.0249" y2="-1.2576" gradientUnits="userSpaceOnUse">
<stop stop-color="white"/>
<stop offset="0.54" stop-color="#C81F11"/>
<stop offset="0.99" stop-color="#BF0905"/>
<stop offset="1" stop-color="#BF0905"/>
</linearGradient>
<linearGradient id="paint7_linear_1089_68506" x1="0.591021" y1="17.1938" x2="1.08568" y2="22.1463" gradientUnits="userSpaceOnUse">
<stop stop-color="white"/>
<stop offset="0.31" stop-color="#DE4024"/>
<stop offset="0.99" stop-color="#BF190B"/>
<stop offset="1" stop-color="#BF190B"/>
</linearGradient>
<linearGradient id="paint8_linear_1089_68506" x1="-2.80962" y1="23.4851" x2="20.4434" y2="-0.42555" gradientUnits="userSpaceOnUse">
<stop stop-color="#BD0012"/>
<stop offset="0.07" stop-color="white"/>
<stop offset="0.17" stop-color="white"/>
<stop offset="0.27" stop-color="#C82F1C"/>
<stop offset="0.33" stop-color="#820C01"/>
<stop offset="0.46" stop-color="#A31601"/>
<stop offset="0.72" stop-color="#B31301"/>
<stop offset="0.99" stop-color="#E82609"/>
<stop offset="1" stop-color="#E82609"/>
</linearGradient>
<linearGradient id="paint9_linear_1089_68506" x1="15.0015" y1="25.9693" x2="7.99519" y2="24.2449" gradientUnits="userSpaceOnUse">
<stop stop-color="#8C0C01"/>
<stop offset="0.54" stop-color="#990C00"/>
<stop offset="0.99" stop-color="#A80D0E"/>
<stop offset="1" stop-color="#A80D0E"/>
</linearGradient>
<linearGradient id="paint10_linear_1089_68506" x1="27.0316" y1="17.5396" x2="20.7941" y2="11.9646" gradientUnits="userSpaceOnUse">
<stop stop-color="#7E110B"/>
<stop offset="0.99" stop-color="#9E0C00"/>
<stop offset="1" stop-color="#9E0C00"/>
</linearGradient>
<linearGradient id="paint11_linear_1089_68506" x1="29.3177" y1="7.27868" x2="26.2091" y2="3.96462" gradientUnits="userSpaceOnUse">
<stop stop-color="#79130D"/>
<stop offset="0.99" stop-color="#9E120B"/>
<stop offset="1" stop-color="#9E120B"/>
</linearGradient>
<radialGradient id="paint12_radial_1089_68506" cx="0" cy="0" r="1" gradientUnits="userSpaceOnUse" gradientTransform="translate(21.7783 12.0543) scale(7.62493 7.64616)">
<stop stop-color="#A80D00"/>
<stop offset="0.99" stop-color="#7E0E08"/>
<stop offset="1" stop-color="#7E0E08"/>
</radialGradient>
<radialGradient id="paint13_radial_1089_68506" cx="0" cy="0" r="1" gradientUnits="userSpaceOnUse" gradientTransform="translate(11.2187 22.1306) scale(10.1363 10.1645)">
<stop stop-color="#A30C00"/>
<stop offset="0.99" stop-color="#800E08"/>
<stop offset="1" stop-color="#800E08"/>
</radialGradient>
<linearGradient id="paint14_linear_1089_68506" x1="4.03826" y1="29.9629" x2="1.49951" y2="21.3736" gradientUnits="userSpaceOnUse">
<stop stop-color="#8B2114"/>
<stop offset="0.43" stop-color="#9E100A"/>
<stop offset="0.99" stop-color="#B3100C"/>
<stop offset="1" stop-color="#B3100C"/>
</linearGradient>
<linearGradient id="paint15_linear_1089_68506" x1="23.4151" y1="1.48747" x2="29.0828" y2="3.98236" gradientUnits="userSpaceOnUse">
<stop stop-color="#B31000"/>
<stop offset="0.44" stop-color="#910F08"/>
<stop offset="0.99" stop-color="#791C12"/>
<stop offset="1" stop-color="#791C12"/>
</linearGradient>
<clipPath id="clip0_1089_68506">
<rect width="30" height="30" fill="white"/>
</clipPath>
</defs>
</svg>
