<?xml version="1.0" encoding="UTF-8" standalone="no"?>
<?xml-stylesheet href="sp-styles.css" type="text/css"?>
<!DOCTYPE svg PUBLIC "-//W3C//DTD SVG 1.1//EN" "http://www.w3.org/Graphics/SVG/1.1/DTD/svg11.dtd">
<svg xmlns="http://www.w3.org/2000/svg" viewBox="0 0 350 550" preserveAspectRatio="xMidYMid meet">
	<title>Scala</title>
	<desc>The Scala Logo</desc>
	<defs>
		<linearGradient id="red-gradient" x1="0%" y1="0%" x2="100%" y2="0%">
			<stop offset="0%" style="stop-color:rgb(160,0,0);stop-opacity:1" />
			<stop offset="100%" style="stop-color:rgb(255,0,0);stop-opacity:1" />
		</linearGradient>
		<linearGradient id="grey-gradient" x1="0%" y1="0%" x2="100%" y2="0%">
			<stop offset="0%" style="stop-color:rgb(100,100,100);stop-opacity:1" />
			<stop offset="100%" style="stop-color:rgb(0,0,0);stop-opacity:1" />
		</linearGradient>
	</defs>
	<g cx="200" cy="70" rx="85" ry="55" fill="url(#grey-gradient)">
		<path d="m 30,80 c 0,0 300,-30 300,-80 l 0,120 c 0,0 0,50 -300,80 l 0,120 z" transform="matrix(1 0 0 -1 0 280)"/>
		<path d="m 30,80 c 0,0 300,-30 300,-80 l 0,120 c 0,0 0,50 -300,80 l 0,120 z" transform="matrix(1 0 0 -1 0 440)"/>
	</g>
	<g cx="200" cy="70" rx="85" ry="55" fill="url(#red-gradient)">
		<path d="m 30,80 c 0,0 300,-30 300,-80 l 0,120 c 0,0 0,50 -300,80 l 0,120 z"/>
		<path d="m 30,240 c 0,0 300,-30 300,-80 l 0,120 c 0,0 0,50 -300,80 l 0,120 z"/>
		<path d="m 30,400 c 0,0 300,-30 300,-80 l 0,120 c 0,0 0,50 -300,80 l 0,120 z"/>
	</g>
</svg>