<svg xmlns="http://www.w3.org/2000/svg" width="30" height="31" viewBox="0 0 30 31">
    <path fill="#fff"
        d="M15 .568c-8.287 0-15 6.713-15 15C0 22.206 4.294 27.812 10.256 29.8c.75.132 1.031-.318 1.031-.712 0-.356-.018-1.538-.018-2.794-3.769.694-4.744-.919-5.044-1.762-.169-.432-.9-1.763-1.537-2.12-.526-.28-1.275-.974-.02-.993 1.182-.019 2.026 1.088 2.307 1.538 1.35 2.268 3.506 1.63 4.369 1.237.131-.975.525-1.631.956-2.006-3.338-.375-6.825-1.669-6.825-7.406 0-1.632.581-2.982 1.538-4.032-.15-.375-.675-1.912.15-3.975 0 0 1.256-.393 4.124 1.538 1.2-.338 2.475-.506 3.75-.506s2.55.168 3.75.506c2.87-1.95 4.126-1.538 4.126-1.538.825 2.063.3 3.6.15 3.975.956 1.05 1.537 2.382 1.537 4.032 0 5.756-3.506 7.03-6.844 7.406.544.469 1.013 1.369 1.013 2.775 0 2.006-.019 3.619-.019 4.125 0 .394.281.862 1.031.712C25.706 27.812 30 22.187 30 15.57c0-8.288-6.712-15-15-15Z"/>
</svg>