<svg xmlns="http://www.w3.org/2000/svg" width="30" height="31" viewbox="0 0 30 31">
    <path fill="#36C5F0"
        d="M10.951.642a2.99 2.99 0 0 0-2.76 4.137 2.99 2.99 0 0 0 2.76 1.848h2.987V3.635A2.99 2.99 0 0 0 10.95.642Zm0 7.98H2.987a2.99 2.99 0 0 0-2.76 4.137 2.99 2.99 0 0 0 2.76 1.849h7.964a2.988 2.988 0 0 0 2.987-2.993 2.991 2.991 0 0 0-2.987-2.992Z" />
    <path fill="#2EB67D"
        d="M29.867 11.615a2.99 2.99 0 0 0-4.13-2.764 2.99 2.99 0 0 0-1.844 2.764v2.993h2.987a2.988 2.988 0 0 0 2.987-2.993Zm-7.965 0v-7.98A2.991 2.991 0 0 0 18.916.642a2.99 2.99 0 0 0-2.987 2.993v7.98a2.988 2.988 0 1 0 5.973 0Z" />
    <path fill="#ECB22E"
        d="M18.916 30.568a2.99 2.99 0 0 0 2.113-5.107 2.991 2.991 0 0 0-2.113-.878h-2.987v2.992a2.988 2.988 0 0 0 2.987 2.993Zm0-7.98h7.964a2.988 2.988 0 0 0 2.987-2.993 2.988 2.988 0 0 0-2.987-2.992h-7.964a2.99 2.99 0 0 0-2.76 4.136 2.987 2.987 0 0 0 2.76 1.848Z" />
    <path fill="#E01E5A"
        d="M0 19.595a2.99 2.99 0 0 0 4.13 2.764 2.99 2.99 0 0 0 1.843-2.764v-2.992H2.987A2.99 2.99 0 0 0 0 19.595m7.964 0v7.98a2.99 2.99 0 0 0 4.131 2.763 2.989 2.989 0 0 0 1.843-2.764v-7.98a2.99 2.99 0 0 0-4.13-2.763 2.99 2.99 0 0 0-1.844 2.764" />
</svg>