<svg xmlns="http://www.w3.org/2000/svg" width="37" height="31" viewBox="0 0 37 31">
    <path fill="#1D9BF0"
        d="M32.978 8.11c.022.32.022.639.022.961 0 9.813-7.47 21.13-21.13 21.13v-.005a21.024 21.024 0 0 1-11.385-3.33 14.913 14.913 0 0 0 10.991-3.078 7.436 7.436 0 0 1-6.938-5.157c1.114.215 2.26.171 3.353-.128a7.427 7.427 0 0 1-5.957-7.279v-.094a7.38 7.38 0 0 0 3.37.93 7.436 7.436 0 0 1-2.298-9.917 21.079 21.079 0 0 0 15.306 7.759 7.435 7.435 0 0 1 12.656-6.774 14.903 14.903 0 0 0 4.716-1.803 7.454 7.454 0 0 1-3.265 4.108 14.77 14.77 0 0 0 4.265-1.17 15.089 15.089 0 0 1-3.706 3.848Z" />
</svg>