<?xml version="1.0" encoding="utf-8"?>
<svg xmlns="http://www.w3.org/2000/svg" xmlns:xlink="http://www.w3.org/1999/xlink" viewBox="0 0 777.7092 204.1672" width="183" height="48">
    <title>Testcontainers</title>
    <path d="M178.2295,54.0101c.007-.1125,.0108-.2252,.0108-.3387-.0003-.3132-.0292-.6227-.0845-.9254-.2605-1.5138-1.198-2.8471-2.5561-3.6312-.1525-.088-.3085-.1677-.4676-.2389L91.7738,.6984c-1.6101-.9305-3.5944-.9312-5.2054-.0025L2.648,49.0976c-1.6107,.9292-2.6035,2.647-2.6044,4.5068L0,150.4826c-.0006,1.8598,.9906,3.5785,2.6006,4.5093l83.877,48.477c.7917,.4575,1.6901,.6983,2.6044,.6983h.1087c.9146,0,1.8131-.2408,2.6047-.6983l83.8767-48.477c1.6101-.9308,2.6016-2.6495,2.6006-4.5093l-.0432-96.4725Z" style="fill: #361e5b; fill-rule: evenodd;"/>
    <polygon points="89.1362 11.187 10.4214 56.6396 10.4214 147.5275 89.1362 192.9799 167.8515 147.5275 167.8515 56.6396 89.1362 11.187" style="fill: #16d6c7;"/>
    <polygon points="167.8514 56.6395 167.8514 147.5274 89.1364 192.98 89.1364 102.0921 167.8514 56.6395" style="fill: #027f9e;"/>
    <polygon points="167.8514 56.6395 89.1364 102.0921 10.4215 56.6395 89.1364 11.187 167.8514 56.6395" style="fill: #17a6b2;"/>
    <path d="M227.4234,130.5243c-.5731,0-1.0414-.1817-1.4048-.5464-.3647-.3634-.5464-.8317-.5464-1.4048v-41.8383h-14.2062c-.5207,0-.9636-.1817-1.327-.5464-.3647-.3634-.5464-.8063-.5464-1.327v-7.0251c0-.5718,.1817-1.0401,.5464-1.4048,.3634-.3634,.8063-.5464,1.327-.5464h40.9014c.5718,0,1.0401,.183,1.4048,.5464,.3634,.3647,.5464,.833,.5464,1.4048v7.0251c0,.5207-.183,.9636-.5464,1.327-.3647,.3647-.833,.5464-1.4048,.5464h-14.1283v41.8383c0,.5731-.183,1.0414-.5464,1.4048-.3644,.3647-.833,.5464-1.4048,.5464h-8.6644Z" style="fill: #361e5b;"/>
    <path d="M271.056,131.3045c-5.9847,0-10.7329-1.6647-14.2452-4.9954-3.5124-3.3294-5.3737-8.1691-5.5809-14.5185v-3.3561c.2071-4.0067,1.1183-7.4543,2.7318-10.3427,1.6123-2.8881,3.8758-5.0993,6.791-6.635,2.9135-1.5341,6.3224-2.3026,10.2252-2.3026,4.3711,0,8.0265,.8978,10.967,2.6931,2.9393,1.7953,5.1517,4.2418,6.6347,7.3371,1.483,3.0972,2.2245,6.6483,2.2245,10.655v1.7956c0,.5204-.1951,.9632-.5855,1.3267-.3901,.3647-.8463,.5464-1.3658,.5464h-25.5242v.6246c.0511,1.666,.3768,3.1877,.9756,4.5658,.5976,1.3794,1.4563,2.4856,2.5758,3.3173,1.1183,.8336,2.4586,1.2492,4.0197,1.2492,1.3003,0,2.3674-.1817,3.2004-.5464,.8317-.3634,1.5221-.8063,2.0685-1.3267,.5464-.5197,.9489-.9626,1.2098-1.3273,.4683-.5191,.8454-.8451,1.1319-.9753,.2853-.1296,.7415-.1951,1.3661-.1951h8.1176c.5197,0,.9489,.1436,1.2879,.4289,.338,.2866,.4807,.6907,.4292,1.2098-.0524,.833-.4816,1.8617-1.2879,3.0835-.8073,1.2231-1.9903,2.4195-3.5515,3.5905-1.5611,1.171-3.5003,2.1463-5.815,2.9272-2.3163,.7802-4.9836,1.1704-8.0007,1.1704Zm-7.7275-24.9h15.2987v-.1557c0-1.8737-.2999-3.499-.8975-4.8785-.5988-1.3781-1.4709-2.4589-2.6149-3.2395-1.1453-.7806-2.5247-1.171-4.137-1.171-1.6136,0-2.993,.3904-4.137,1.171-1.1453,.7806-2.0173,1.8613-2.6149,3.2395-.5988,1.3794-.8975,3.0047-.8975,4.8785v.1557Z" style="fill: #361e5b;"/>
    <path d="M313.4394,131.3045c-3.2271,0-5.998-.3781-8.313-1.1316-2.316-.7536-4.1894-1.678-5.6199-2.7709-1.4318-1.0929-2.4977-2.1978-3.2004-3.3173-.7024-1.1183-1.0805-2.0688-1.1316-2.849-.0524-.5718,.1293-1.0401,.5464-1.4048,.4159-.3634,.8317-.5464,1.2488-.5464h7.5712c.1563,0,.3123,.0267,.4686,.0782,.156,.0521,.312,.183,.4683,.3901,.6757,.4683,1.3781,1.0026,2.1076,1.5999,.7281,.5992,1.5732,1.1062,2.5368,1.5224,.9623,.4168,2.1721,.6246,3.6296,.6246,1.7171,0,3.1734-.3514,4.3711-1.0541,1.1964-.7021,1.7953-1.7035,1.7953-3.0054,0-.9366-.2732-1.7168-.8196-2.3414s-1.5745-1.1964-3.0832-1.7174c-1.51-.5191-3.7468-1.0929-6.7128-1.7168-2.81-.6246-5.2041-1.4563-7.1811-2.4977-1.9783-1.0408-3.4612-2.3541-4.4493-3.9425-.989-1.5865-1.483-3.499-1.483-5.7369,0-2.0294,.6367-3.981,1.9122-5.8544,1.2746-1.8734,3.1613-3.4209,5.659-4.6443,2.498-1.2218,5.6203-1.8343,9.3668-1.8343,2.8611,0,5.3725,.3514,7.5324,1.0538,2.1587,.7027,3.9673,1.5881,5.4249,2.654,1.4563,1.0671,2.5625,2.16,3.3173,3.2782,.7539,1.1195,1.1573,2.0955,1.2098,2.9272,.0515,.5207-.1048,.9636-.4683,1.327-.3647,.3647-.7806,.5464-1.2488,.5464h-6.9469c-.2611,0-.4953-.0388-.7024-.1169-.2087-.0782-.3904-.1951-.5464-.3514-.6246-.4162-1.2625-.8978-1.9125-1.4442-.6513-.5464-1.4185-1.0268-2.3026-1.4439-.8854-.4159-2.0294-.6246-3.4346-.6246-1.7171,0-3.0317,.3781-3.9416,1.1319-.9111,.7548-1.3661,1.7054-1.3661,2.849,0,.7294,.2341,1.4048,.7024,2.0294s1.4306,1.1977,2.8881,1.7174c1.4563,.5204,3.6687,1.0668,6.6347,1.6393,3.5381,.6239,6.3481,1.5611,8.4302,2.8097,2.0806,1.2492,3.5772,2.6934,4.488,4.3327,.9099,1.6386,1.3661,3.3948,1.3661,5.2686,0,2.4462-.7294,4.6186-2.1857,6.5177-1.4572,1.8998-3.5781,3.3828-6.3614,4.4489-2.7842,1.0662-6.2055,1.5999-10.2643,1.5999Z" style="fill: #361e5b;"/>
    <path d="M358.4768,130.5243c-3.2271,0-5.9847-.5331-8.2739-1.5999-2.2902-1.0662-4.0197-2.7188-5.1907-4.9566-1.1707-2.2372-1.7562-5.0468-1.7562-8.4302v-16.3919h-6.0882c-.5731,0-1.0417-.1817-1.4051-.5464-.3647-.3634-.5464-.8317-.5464-1.4051v-5.3077c0-.5722,.1817-1.0404,.5464-1.4051,.3634-.3634,.832-.5464,1.4051-.5464h6.0882v-12.8792c0-.5718,.1954-1.0401,.5855-1.4048,.3904-.3634,.8451-.5464,1.3661-.5464h7.6494c.5722,0,1.0404,.183,1.4051,.5464,.3634,.3647,.5464,.833,.5464,1.4048v12.8792h9.7569c.5194,0,.9623,.183,1.327,.5464,.3634,.3647,.5461,.833,.5461,1.4051v5.3077c0,.5734-.1827,1.0417-.5461,1.4051-.3647,.3647-.8076,.5464-1.327,.5464h-9.7569v15.4553c0,1.9779,.351,3.5257,1.0535,4.644,.7027,1.1195,1.9382,1.6787,3.7078,1.6787h5.6981c.5194,0,.9623,.183,1.327,.5464,.3634,.3641,.5464,.8069,.5464,1.3267v5.7763c0,.5731-.183,1.0414-.5464,1.4048-.3647,.3647-.8076,.5464-1.327,.5464h-6.791Z" style="fill: #361e5b;"/>
    <path d="M393.9142,131.3045c-3.7993,0-7.142-.7021-10.0301-2.1069-2.8881-1.4055-5.165-3.4469-6.83-6.1276-1.666-2.6794-2.5758-5.8932-2.7318-9.64-.0524-.8317-.0782-1.8852-.0782-3.161,0-1.2746,.0257-2.3287,.0782-3.1617,.156-3.7977,1.0538-7.0368,2.6931-9.7182,1.639-2.6794,3.9149-4.7222,6.8297-6.1273,2.9139-1.4048,6.2699-2.1076,10.0692-2.1076,3.4857,0,6.4517,.4819,8.8985,1.4442,2.4449,.9636,4.4489,2.1733,6.0101,3.6296,1.5611,1.4572,2.7188,2.9793,3.4736,4.5662,.7536,1.5881,1.1577,2.9796,1.2098,4.176,.0508,.521-.1169,.9759-.507,1.3661s-.8463,.5852-1.3661,.5852h-8.3521c-.521,0-.9245-.1423-1.2104-.4289-.2859-.2853-.5591-.6894-.819-1.2098-.7294-1.821-1.666-3.1223-2.8103-3.9031-1.145-.7806-2.5758-1.171-4.293-1.171-2.3417,0-4.1894,.7552-5.5418,2.2639-1.354,1.5097-2.0821,3.8517-2.1857,7.0248-.0524,2.0294-.0524,3.8777,0,5.5424,.156,3.2271,.8978,5.5685,2.2245,7.0248,1.327,1.4576,3.1613,2.1857,5.503,2.1857,1.821,0,3.2782-.3901,4.3711-1.171,1.0929-.7802,2.0027-2.0802,2.7321-3.9025,.2071-.5197,.4683-.9232,.7809-1.2098,.3113-.2853,.7275-.4295,1.2485-.4295h8.3521c.5197,0,.9759,.1951,1.3661,.5852,.3901,.3908,.5579,.847,.507,1.3661-.0521,.8857-.2999,1.9258-.7415,3.1223-.4429,1.1977-1.1456,2.4202-2.1076,3.6687-.9632,1.2492-2.1991,2.4075-3.7074,3.4736-1.5103,1.0668-3.344,1.9258-5.503,2.5758-2.1603,.65-4.6713,.9753-7.5324,.9753Z" style="fill: #361e5b;"/>
    <path d="M438.9513,131.3045c-4.32,0-7.9365-.7154-10.8498-2.1463-2.9145-1.4302-5.1396-3.4736-6.6734-6.127-1.5357-2.654-2.3814-5.7496-2.5371-9.2886-.0527-1.0408-.0782-2.2251-.0782-3.5518s.0254-2.4843,.0782-3.4736c.1557-3.5905,1.0401-6.6995,2.654-9.328,1.6126-2.627,3.8758-4.6564,6.791-6.0882,2.9139-1.4306,6.4517-2.1466,10.6153-2.1466,4.1103,0,7.6227,.7161,10.5378,2.1466,2.9139,1.4318,5.1771,3.4612,6.791,6.0882,1.612,2.6286,2.497,5.7375,2.6534,9.328,.1042,.9893,.1563,2.1463,.1563,3.4736s-.0521,2.511-.1563,3.5518c-.1563,3.5391-1.0026,6.6347-2.5364,9.2886-1.5357,2.6534-3.7602,4.6967-6.674,6.127-2.9151,1.4309-6.505,2.1463-10.7716,2.1463Zm0-8.5859c2.5485,0,4.475-.793,5.7763-2.3808,1.3-1.5865,2.0027-3.9146,2.1069-6.986,.0521-.7802,.0788-1.821,.0788-3.1223,0-1.3-.0267-2.3414-.0788-3.1223-.1042-3.0174-.8069-5.3334-2.1069-6.9466-1.3013-1.6129-3.2277-2.4202-5.7763-2.4202s-4.4883,.8073-5.8156,2.4202c-1.3267,1.6132-2.0421,3.9292-2.1463,6.9466-.0521,.7809-.0775,1.8223-.0775,3.1223,0,1.3013,.0254,2.342,.0775,3.1223,.1042,3.0714,.8196,5.3995,2.1463,6.986,1.3273,1.5878,3.2659,2.3808,5.8156,2.3808Z" style="fill: #361e5b;"/>
    <path d="M467.8319,130.5243c-.521,0-.9639-.1817-1.3273-.5464-.3647-.3634-.5464-.8317-.5464-1.4048v-36.6866c0-.5722,.1817-1.0404,.5464-1.4051,.3634-.3634,.8063-.5464,1.3273-.5464h7.6494c.5718,0,1.0408,.183,1.4055,.5464,.3634,.3647,.5458,.833,.5458,1.4051v3.0441c1.3527-1.6647,3.0956-3.0441,5.2298-4.137,2.1336-1.0929,4.7349-1.6393,7.8057-1.6393s5.7623,.6903,8.0789,2.0685c2.3147,1.3794,4.137,3.3834,5.4636,6.0104,1.3273,2.6283,1.9906,5.8153,1.9906,9.5622v21.7777c0,.5731-.1951,1.0414-.5858,1.4048-.3901,.3647-.8463,.5464-1.3661,.5464h-8.2739c-.5731,0-1.0408-.1817-1.4042-.5464-.3647-.3634-.5464-.8317-.5464-1.4048v-21.3094c0-2.7576-.6633-4.9045-1.9906-6.4396-1.3273-1.5344-3.2665-2.3029-5.8156-2.3029-2.4462,0-4.3975,.7685-5.8538,2.3029-1.4576,1.5351-2.1857,3.682-2.1857,6.4396v21.3094c0,.5731-.183,1.0414-.5464,1.4048-.3641,.3647-.8076,.5464-1.3267,.5464h-8.2739Z" style="fill: #361e5b;"/>
    <path d="M534.1003,130.5243c-3.2265,0-5.984-.5331-8.2739-1.5999-2.2899-1.0662-4.0194-2.7188-5.1904-4.9566-1.171-2.2372-1.7562-5.0468-1.7562-8.4302v-16.3919h-6.0882c-.5731,0-1.0414-.1817-1.4048-.5464-.3647-.3634-.5464-.8317-.5464-1.4051v-5.3077c0-.5722,.1817-1.0404,.5464-1.4051,.3634-.3634,.8317-.5464,1.4048-.5464h6.0882v-12.8792c0-.5718,.1951-1.0401,.5852-1.4048,.3908-.3634,.8451-.5464,1.3661-.5464h7.65c.5718,0,1.0401,.183,1.4048,.5464,.3634,.3647,.5464,.833,.5464,1.4048v12.8792h9.7569c.5191,0,.9626,.183,1.3273,.5464,.3634,.3647,.5458,.833,.5458,1.4051v5.3077c0,.5734-.1824,1.0417-.5458,1.4051-.3647,.3647-.8082,.5464-1.3273,.5464h-9.7569v15.4553c0,1.9779,.3514,3.5257,1.0535,4.644,.7027,1.1195,1.9385,1.6787,3.7074,1.6787h5.6981c.5197,0,.9626,.183,1.3273,.5464,.3634,.3641,.5464,.8069,.5464,1.3267v5.7763c0,.5731-.183,1.0414-.5464,1.4048-.3647,.3647-.8076,.5464-1.3273,.5464h-6.791Z" style="fill: #361e5b;"/>
    <path d="M562.2788,131.3045c-2.7588,0-5.2298-.5337-7.4155-1.5999-2.1857-1.0662-3.9292-2.5098-5.2292-4.332-1.3019-1.821-1.9519-3.8504-1.9519-6.0882,0-3.6941,1.4957-6.608,4.4883-8.7428,2.9914-2.133,6.9333-3.5905,11.8257-4.3708l10.2246-1.483v-1.4048c0-2.03-.4676-3.5905-1.4042-4.6837-.9372-1.0929-2.5758-1.6393-4.9179-1.6393-1.7168,0-3.0968,.339-4.137,1.0147-1.0414,.677-1.8477,1.5614-2.4202,2.6543-.4168,.6767-1.0141,1.0147-1.795,1.0147h-7.4155c-.5731,0-1.0141-.1684-1.3267-.5077-.3126-.338-.4422-.7415-.3901-1.2098,0-.8845,.338-1.9246,1.0147-3.1223,.6754-1.1964,1.7174-2.3808,3.1223-3.5518,1.4048-1.1707,3.2004-2.1463,5.3861-2.9269,2.1851-.7806,4.8645-1.171,8.0395-1.171,3.2779,0,6.0882,.3904,8.4296,1.171,2.342,.7806,4.2151,1.8734,5.6206,3.2782,1.4048,1.4051,2.4449,3.032,3.1223,4.8785,.6754,1.8477,1.0141,3.8383,1.0141,5.9713v24.1197c0,.5731-.183,1.0414-.5464,1.4048-.3647,.3647-.8323,.5464-1.4042,.5464h-7.65c-.521,0-.9632-.1817-1.3267-.5464-.3647-.3634-.5464-.8317-.5464-1.4048v-2.8884c-.6773,.9893-1.5885,1.9125-2.7321,2.7715-1.145,.8584-2.511,1.5484-4.0982,2.0682-1.5872,.5197-3.4476,.7802-5.5806,.7802Zm3.1223-8.1176c1.7174,0,3.2512-.3634,4.6052-1.0929,1.3527-.7281,2.4195-1.8464,3.2004-3.3561,.7802-1.509,1.1704-3.4075,1.1704-5.6981v-1.3273l-7.2586,1.171c-2.8103,.4683-4.867,1.171-6.167,2.1076-1.3013,.9366-1.9513,2.0821-1.9513,3.4342,0,.9893,.2993,1.8483,.8978,2.5758,.5973,.7294,1.3915,1.2758,2.3808,1.6393,.988,.3647,2.0294,.5464,3.1223,.5464Z" style="fill: #361e5b;"/>
    <path d="M596.076,83.6907c-.521,0-.9639-.1817-1.3273-.5464-.3647-.3634-.5464-.832-.5464-1.4051v-6.2445c0-.5718,.1817-1.0538,.5464-1.4439,.3634-.3904,.8063-.5855,1.3273-.5855h8.1958c.5718,0,1.0535,.1951,1.4436,.5855,.3908,.3901,.5858,.8721,.5858,1.4439v6.2445c0,.5731-.1951,1.0417-.5858,1.4051-.3901,.3647-.8717,.5464-1.4436,.5464h-8.1958Zm.2345,46.8336c-.521,0-.9639-.1817-1.3273-.5464-.3647-.3634-.5464-.8317-.5464-1.4048v-36.6866c0-.5722,.1817-1.0404,.5464-1.4051,.3634-.3634,.8063-.5464,1.3273-.5464h7.805c.5718,0,1.0408,.183,1.4055,.5464,.3634,.3647,.5464,.833,.5464,1.4051v36.6866c0,.5731-.183,1.0414-.5464,1.4048-.3647,.3647-.8336,.5464-1.4055,.5464h-7.805Z" style="fill: #361e5b;"/>
    <path d="M617.6961,130.5243c-.521,0-.9632-.1817-1.3267-.5464-.3647-.3634-.5464-.8317-.5464-1.4048v-36.6866c0-.5722,.1817-1.0404,.5464-1.4051,.3634-.3634,.8057-.5464,1.3267-.5464h7.65c.5718,0,1.0401,.183,1.4048,.5464,.3634,.3647,.5458,.833,.5458,1.4051v3.0441c1.3534-1.6647,3.0956-3.0441,5.2305-4.137,2.133-1.0929,4.7342-1.6393,7.805-1.6393s5.7629,.6903,8.0795,2.0685c2.3141,1.3794,4.1363,3.3834,5.463,6.0104,1.3273,2.6283,1.9913,5.8153,1.9913,9.5622v21.7777c0,.5731-.1957,1.0414-.5858,1.4048-.3901,.3647-.8463,.5464-1.3661,.5464h-8.2739c-.5731,0-1.0414-.1817-1.4048-.5464-.3647-.3634-.5464-.8317-.5464-1.4048v-21.3094c0-2.7576-.6633-4.9045-1.9906-6.4396-1.3267-1.5344-3.2659-2.3029-5.815-2.3029-2.4462,0-4.3981,.7685-5.8544,2.3029-1.4576,1.5351-2.1857,3.682-2.1857,6.4396v21.3094c0,.5731-.183,1.0414-.5464,1.4048-.3641,.3647-.8069,.5464-1.3267,.5464h-8.2739Z" style="fill: #361e5b;"/>
    <path d="M682.1702,131.3045c-5.9847,0-10.7329-1.6647-14.2452-4.9954-3.5124-3.3294-5.3734-8.1691-5.5806-14.5185v-3.3561c.2071-4.0067,1.1183-7.4543,2.7315-10.3427,1.612-2.8881,3.8758-5.0993,6.791-6.635,2.9132-1.5341,6.3227-2.3026,10.2252-2.3026,4.3714,0,8.0261,.8978,10.9667,2.6931,2.9393,1.7953,5.1517,4.2418,6.6347,7.3371,1.483,3.0972,2.2251,6.6483,2.2251,10.655v1.7956c0,.5204-.1957,.9632-.5858,1.3267-.3901,.3647-.8463,.5464-1.3661,.5464h-25.5239v.6246c.0515,1.666,.3768,3.1877,.9753,4.5658,.5979,1.3794,1.4563,2.4856,2.5758,3.3173,1.1183,.8336,2.4589,1.2492,4.0201,1.2492,1.3006,0,2.3674-.1817,3.2004-.5464,.8317-.3634,1.5224-.8063,2.0688-1.3267,.5464-.5197,.9486-.9626,1.2098-1.3273,.4676-.5191,.8451-.8451,1.1316-.9753,.2853-.1296,.7415-.1951,1.3661-.1951h8.1176c.5197,0,.9486,.1436,1.2879,.4289,.338,.2866,.4803,.6907,.4295,1.2098-.0527,.833-.4816,1.8617-1.2886,3.0835-.8069,1.2231-1.99,2.4195-3.5511,3.5905-1.5611,1.171-3.5003,2.1463-5.815,2.9272-2.316,.7802-4.9833,1.1704-8.0007,1.1704Zm-7.7275-24.9h15.2987v-.1557c0-1.8737-.2999-3.499-.8978-4.8785-.5985-1.3781-1.4703-2.4589-2.6146-3.2395-1.1456-.7806-2.5244-1.171-4.137-1.171-1.6139,0-2.9926,.3904-4.137,1.171-1.1456,.7806-2.0173,1.8613-2.6146,3.2395-.5992,1.3794-.8978,3.0047-.8978,4.8785v.1557Z" style="fill: #361e5b;"/>
    <path d="M710.8163,130.5243c-.521,0-.9639-.1817-1.3273-.5464-.3647-.3634-.5464-.8317-.5464-1.4048v-36.6866c0-.5197,.1817-.9756,.5464-1.3661,.3634-.3901,.8063-.5855,1.3273-.5855h7.6487c.5197,0,.9759,.1954,1.3661,.5855,.3901,.3904,.5858,.8463,.5858,1.3661v3.1223c1.3-1.6126,2.8999-2.8614,4.8003-3.7468,1.8992-.8841,4.0976-1.327,6.5959-1.327h3.3561c.5197,0,.962,.183,1.3267,.5464,.3634,.3647,.5464,.833,.5464,1.4051v6.7128c0,.5731-.183,1.0417-.5464,1.4051-.3647,.3647-.8069,.5464-1.3267,.5464h-6.8685c-2.2912,0-4.0861,.6379-5.3861,1.9125-1.3013,1.2752-1.9513,3.0829-1.9513,5.4249v20.6848c0,.5731-.183,1.0414-.5464,1.4048-.3647,.3647-.8336,.5464-1.4055,.5464h-8.1951Z" style="fill: #361e5b;"/>
    <path d="M758.8981,131.3045c-3.2271,0-5.998-.3781-8.3133-1.1316s-4.1891-1.678-5.6193-2.7709c-1.4321-1.0929-2.4983-2.1978-3.2011-3.3173-.7021-1.1183-1.0801-2.0688-1.131-2.849-.0527-.5718,.129-1.0401,.5464-1.4048,.4155-.3634,.8311-.5464,1.2485-.5464h7.5712c.1563,0,.312,.0267,.4683,.0782,.1563,.0521,.3126,.183,.4689,.3901,.6754,.4683,1.3775,1.0026,2.1069,1.5999,.7281,.5992,1.5732,1.1062,2.5371,1.5224,.9626,.4168,2.1724,.6246,3.6299,.6246,1.7168,0,3.1731-.3514,4.3708-1.0541,1.1964-.7021,1.795-1.7035,1.795-3.0054,0-.9366-.2732-1.7168-.8196-2.3414s-1.5745-1.1964-3.0829-1.7174c-1.5097-.5191-3.7468-1.0929-6.7128-1.7168-2.8103-.6246-5.2044-1.4563-7.1811-2.4977-1.9779-1.0408-3.4609-2.3541-4.4496-3.9425-.9887-1.5865-1.483-3.499-1.483-5.7369,0-2.0294,.6367-3.981,1.9125-5.8544,1.2746-1.8734,3.1617-3.4209,5.6587-4.6443,2.4983-1.2218,5.6206-1.8343,9.3668-1.8343,2.8618,0,5.3728,.3514,7.5331,1.0538,2.1584,.7027,3.9673,1.5881,5.4249,2.654,1.4563,1.0671,2.5619,2.16,3.3167,3.2782,.7542,1.1195,1.1577,2.0955,1.2098,2.9272,.0521,.5207-.1042,.9636-.4676,1.327-.3647,.3647-.7809,.5464-1.2492,.5464h-6.9473c-.2605,0-.495-.0388-.7021-.1169-.209-.0782-.3908-.1951-.5464-.3514-.6246-.4162-1.2625-.8978-1.9125-1.4442-.6513-.5464-1.4188-1.0268-2.3026-1.4439-.8851-.4159-2.0294-.6246-3.4342-.6246-1.7174,0-3.032,.3781-3.9419,1.1319-.9111,.7548-1.3661,1.7054-1.3661,2.849,0,.7294,.2338,1.4048,.7027,2.0294,.4676,.6246,1.4302,1.1977,2.8878,1.7174,1.4563,.5204,3.6687,1.0668,6.6347,1.6393,3.5384,.6239,6.3481,1.5611,8.4302,2.8097,2.0809,1.2492,3.5772,2.6934,4.4877,4.3327,.9099,1.6386,1.3661,3.3948,1.3661,5.2686,0,2.4462-.7294,4.6186-2.1857,6.5177-1.4569,1.8998-3.5778,3.3828-6.3614,4.4489-2.7842,1.0662-6.2051,1.5999-10.2639,1.5999Z" style="fill: #361e5b;"/>
</svg>